<svg
  xmlns="http://www.w3.org/2000/svg"
  width="257.27"
  height="188.456"
  viewBox="0 0 192.953 141.342"
  version="1.2"
>
  <path
    fill="currentColor"
    d="M17.722 130.04l-.064-53.913a990.587 990.587 0 01-3.575-9.678c-1.17-3.241-2.362-6.495-3.57-9.76a1.542 1.542 0 01.03-1.133 1.35 1.35 0 01.839-.744c.403-.136.783-.12 1.136.045.358.156.607.43.74.823l.024.074a396.3 396.3 0 011.887 5.745 523.6 523.6 0 001.9 5.74l.58 1.718-.003-30.684c0-.494.142-.926.436-1.3a2.276 2.276 0 011.114-.805c.64-.216 1.22-.172 1.74.122.517.301.87.726 1.056 1.277l.125.37a.594.594 0 01-.018.435l-1.372 39.721c1.21 3.43 2.453 6.92 3.727 10.468 1.278 3.538 2.715 6.76 4.31 9.66l.676 1.272c.05.15.115.268.204.361a141.947 141.947 0 005.113-12.276 315.09 315.09 0 004.346-12.842l2.772-8.849a263.85 263.85 0 002.624-8.896c.82-2.949 1.694-5.934 2.619-8.963l3.671-13.323 1.26-4.678c.217-.688.697-1.159 1.438-1.408.551-.186 1.113-.136 1.68.142.566.285.945.7 1.131 1.252.067.199.098.462.102.79L53.863 96.77c-.017.278-.197.478-.54.594-.408.137-.674.005-.806-.387-.034-.1-.037-.182-.002-.246l-.438-51.793a171.739 171.739 0 00-3.778 10.953 273.736 273.736 0 01-3.62 10.882L41.486 75.6c-1.71 4.36-3.385 8.718-5.026 13.07a83.07 83.07 0 01-6.066 12.68c-.067.13-.225.24-.468.322-.248.084-.421.06-.52-.072a2.492 2.492 0 00-.376-.385l-.833-.954c-1.71-2.434-3.14-5.134-4.28-8.105a623.773 623.773 0 00-3.315-8.512l-1.531 46.436c-.097.37-.24.592-.438.659a.636.636 0 01-.568-.073c-.18-.105-.292-.231-.342-.38-.033-.099-.037-.181 0-.246zm0 0M68.28 74.236l.395.197c.343.173.611.223.812.155.048-.016.145-.057.286-.13.138-.078.248-.156.33-.242l.453-.417c.064-.129.179-.278.345-.446l.319-.52a15.674 15.674 0 001.55-3.82 27.738 27.738 0 00.78-4.137c.016-.442.25-.744.704-.897a.866.866 0 01.811.107c.251.158.419.36.5.604.188.556.178 1.285-.022 2.185a20.442 20.442 0 01-.81 2.78 40.815 40.815 0 01-1.04 2.592c-.34.787-.588 1.286-.745 1.505l-.418.717-.438.66-.63.623a3.17 3.17 45 01-.789.646 4.86 4.86 0 01-.853.404 6.701 6.701 0 00-.958.042 1.763 1.763 0 01-.926-.15c-.23.464-.402 1.104-.522 1.923a20.968 20.968 0 01-.51 2.546 9.343 9.343 0 01-1.044 2.48c-.457.76-1.135 1.29-2.036 1.593l-.458.155a2.598 2.598 0 01-1.458.078 2.446 2.446 0 01-1.232-.674l-.635-.609-.7-1.346a19.86 19.86 0 01-.844-5.34c-.04-1.854.08-3.604.358-5.25l.228-1.328c.128-.44.23-.874.303-1.305.073-.442.194-.915.36-1.425l.622-1.381.345-.693c.178-.278.451-.58.817-.902.363-.32.947-.615 1.747-.885h.246l.074-.026c.486-.052.92.037 1.295.273.385.234.657.579.81 1.03l.149.444.361.29c.448.521.743.954.884 1.302.148.337.287.703.42 1.095l.33 1.472.133 1.373a43.76 43.76 0 00.054 1.334c.031.484.037.87.024 1.146zm-5.6-4.773a1.974 1.974 0 00-.305.515 4.84 4.84 0 01-.2.48l-.378 1.133-.146.544-.215.583a65.41 65.41 0 00-.448 2.393 15.881 15.881 0 00-.194 2.408l-.02 1.16a33.621 33.621 0 01.218 1.725 7.283 7.283 0 00.352 1.677c.083.248.182.495.299.74.105.241.223.394.352.459l.222.172c.135.066.225.089.273.073l.558-.105c.148-.05.331-.166.542-.348.216-.18.41-.44.58-.773l.511-.93c.316-.886.56-1.97.736-3.25.182-1.28.181-2.36-.006-3.245-.45-.847-.888-1.655-1.313-2.427-.427-.78-.715-1.392-.865-1.836l-.484-1.436zm0 0"
  />
  <path
    fill="currentColor"
    d="M77.28 62.365c.058-.184.18-.497.358-.945.177-.455.355-.82.536-1.103l.45-.911.272-.174c.063-.128.198-.268.404-.417a1.92 1.92 0 01.522-.308l.953-.155c.426-.033.768.05 1.024.248.262.188.43.296.505.324l.372.37c.102.143.201.278.303.409.097.132.174.271.224.42l.15.444c.506 1.503.678 3.015.523 4.538a31.263 31.263 0 00-.094 4.665l-.116 3.123.685-2.903a15.14 15.14 0 01.59-2.705l.16-.55.265-.682c.03-.229.11-.457.23-.688l.324-.652.413-.733.222-.322.679-.724c.031-.063.18-.197.443-.396l1.026-.43c.048-.015.255-.027.613-.04.359-.01.611.04.76.155l.596.295c.276.137.479.324.613.551.132.232.282.429.447.592l.18.532c.133.396.2.676.2.84l.106.805c.034.43.043.884.03 1.36-.005.474-.04.947-.1 1.417l-.088 1.695.96-2.83a39.945 39.945 0 00.737-2.458c.227-.822.425-1.652.596-2.491l.643-2.543c.012-.123.015-.223.014-.3a.857.857 0 01.103-.332l.3-1.85c.08-.41.318-.684.714-.817.651-.22 1.085-.007 1.3.633.088.26.005.72-.241 1.385-.25.67-.431 1.241-.543 1.716l-2.12 7.557-.743 2.492-.72 1.826-.55 1.108-.246.25c-.034.068-.123.123-.27.173l-.311.104c-.084.085-.176.105-.277.06l-.243-.133-.198-.098c-.33-.16-.508-.31-.53-.447a1.44 1.44 0 00-.045-.28l-.325-.965c-.004-.171-.056-.41-.155-.705l-.405-1.94-.387-1.881-.25-.74a4.903 4.903 0 00-.492.742l-.673.986a41.707 41.707 0 00-2.351 4.42 29.894 29.894 0 00-1.744 4.956.529.529 0 01-.37.373c-.355.12-.582.03-.682-.266.031-.064.042-.12.024-.172l-.02-1.33a32.11 32.11 0 01-.224-1.886 51.607 51.607 0 01-.15-2.159l-.374-2.628c-.19-.879-.373-1.79-.557-2.73a20.007 20.007 0 00-.691-2.686l-1.534 4.111a330.832 330.832 0 01-1.731 5.087 37.839 37.839 0 00-1.427 5.065l-.545 2.59c-.107.489-.213 1.13-.304 1.933-.09.809-.335 1.283-.743 1.42-.196.066-.4.036-.607-.092a.864.864 0 01-.407-.474c-.034-.099-.032-.182-.001-.246l-.24-19.013c-.038-.93.414-1.557 1.361-1.876.553-.186 1.048-.172 1.483.044.436.216.751.538.952.965zm11.133 3.092l-.074.024c.018.052.047.067.1.05zm0 0"
  />
  <path
    fill="currentColor"
    d="M98.294 68.293l.314 2.4a4.543 4.543 0 00.217 1.18l.374 1.111c.153.455.298.798.428 1.027l.591.723c.033.097.118.18.248.247l.198.098c.115.014.199.015.246 0l.371-.125c.652-.22 1.263-.718 1.838-1.494a13.611 13.611 0 001.455-2.484 32.464 32.464 0 00.965-2.42c.26-.723.415-1.18.465-1.36l.718-2.322.689-2.408c.215-.851.43-1.67.639-2.458.202-.794.387-1.606.545-2.442l.521-2.419.296-1.863.121-.618c.016-.442.248-.743.704-.897.296-.1.585-.086.869.037a1 1 0 01.59.625c.05.149.058.343.032.583l-.545 2.59-.264 1.178a122.24 122.24 0 00-.755 3.09 56.594 56.594 0 01-.814 3.11l-1.546 4.859a35.65 35.65 0 01-1.396 3.636 22.857 22.857 0 01-1.941 3.49l-.975 1.07c-.226.184-.437.354-.636.512a5.42 5.42 0 01-.63.427l-.756.254c-.552.186-1.052.182-1.502-.005a3.851 3.851 0 01-1.144-.702 4.877 4.877 0 01-.798-.853c-.206-.292-.321-.463-.338-.511a4.502 4.502 0 01-.69-1.219c-.19-.463-.351-.895-.488-1.302l-.78-2.558-.281-1.322a35.558 35.558 0 01-.579-3.186 17.375 17.375 0 01-.12-3.34l-.107-1.299.064-1.275.056-1.354a14.64 14.64 0 01.434-2.768c.232-.878.512-1.821.847-2.825l.992-1.505c.116-.145.294-.317.537-.51.242-.189.487-.33.736-.413l.754-.254c.392-.133.794-.14 1.196-.024.4.109.73.232.999.372l.644.442.889 1.366c.115.184.226.427.328.73.1.297.174.564.22.8a5.363 5.363 0 01.121.75l.209 1.349c.117.678.164 1.395.15 2.159-.022.756-.067 1.366-.143 1.828l-.065 1.028.026.321a20.088 20.088 0 01-.99 3.764c-.456 1.267-1.195 2.207-2.215 2.824l-.518.174-.594-.048-.607-.042-.451-.359-.1-.05zm.136-4.052c.169.502.313.846.428 1.026l.451.607c.066.035.122.041.174.024l.073-.025a.38.38 0 00.137-.08.325.325 0 01.149-.099l.215-.336.417-.966.254-1.009c.08-.41.136-.841.174-1.294.042-.464.001-.875-.118-1.23l-.077-.964-.143-1.205a41.64 41.64 0 01-.226-1.16 9.09 9.09 0 00-.31-1.166l-.48-1.668c-.302.608-.558 1.351-.768 2.222a26.2 26.2 0 00-.47 2.664 17.478 17.478 0 00-.15 2.64c.015.851.103 1.527.269 2.02zm.715-10.498l-.074.025c.018.052.047.067.1.05zm0 0"
  />
  <path
    fill="currentColor"
    d="M112.787 49.229c-.11.82-.204 1.619-.277 2.401-.07.774-.137 1.555-.2 2.344l-.642 8.229a67.246 67.246 0 011.384-4.258 42.12 42.12 0 011.785-4.148c.145-.378.308-.763.486-1.152.172-.396.34-.763.505-1.094l1.14-1.802.488-.51.163-.055.123-.124c.096-.033.152-.06.168-.09.02-.039.078-.075.177-.109.048-.016.105-.007.173.024.148-.05.337-.052.573-.012l.535.067.494.245.521.567.303.41c.156.111.31.381.452.803l.265.786c.269.798.502 1.586.694 2.354.201.77.388 1.567.562 2.4l.53 2.31.53 1.57.646-1.802a32.55 32.55 0 00.948-3.353 83.56 83.56 0 00.734-3.545l.635-3.545.067-.533.048-.593c.113-.475.397-.794.853-.947a.908.908 0 01.825.101c.251.159.425.385.525.68l.095.282c.04.118.008.194-.088.227l-.987 4.752c-.208.73-.379 1.508-.516 2.334-.13.827-.295 1.608-.498 2.344l-1.03 3.595a4.869 4.869 0 01-.303.86l-.49.99-.31.353c-.068.133-.15.215-.248.248l-.344.198c-.148.05-.37.1-.662.14-.294.046-.571-.079-.836-.377l-.6-.557-.174-.271-1.854-4.717-1.106-2.793-.454-1.348a5.106 5.106 0 00-.436.906l-.555 1.094-1.977 4.26-1.932 4.395c-.316.725-.623 1.455-.926 2.193a33.877 33.877 0 00-.843 2.244l-.362 1.128-.406 1.044-.435 1.646c-.031.065-.041.122-.024.174.016.047-.015.112-.098.198l-.033.44c-.048.016-.066.047-.05.098l-.147.298c-.047.016-.066.047-.049.099l-.32.272-.222.075c-.148.05-.395.05-.741.003-.353-.047-.602-.272-.738-.675-.084-.248-.108-.367-.072-.355.033.022.028-.018-.004-.115l.049-.098-.025-.074c.052-.017.065-.051.049-.1l.215-.83-.025-.075a9.52 9.52 0 00.3-2.095c.028-.736.052-1.493.071-2.282l.036-2.338.104-1.207c-.015-.377-.016-.76-.007-1.15-.002-.396.014-.788.045-1.187l-.053-2.405c-.043-1.601-.054-3.197-.03-4.788a46.121 46.121 0 00-.204-4.812c-.032-.426.091-.844.371-1.247.282-.4.619-.67 1.016-.803a1.885 1.885 0 011.581.142c.508.27.857.681 1.042 1.232.118.348.126.618.027.816zm-4.392 22.83l.025.075c-.017-.051.002-.083.05-.099zm0 0"
  />
  <path
    fill="currentColor"
    d="M124.243 36.448l3.013-1.675v-2.258c-.004-.495-.005-1.014-.001-1.567.007-.564.047-1.08.118-1.557l.151-3.217.204-1.403.195-.643c-.017-.048.006-.14.073-.273.064-.128.139-.237.221-.321l.553-.615 1.199-.404 1.206.351.694.591.453 1.1a.887.887 0 00.056.41l.002.494c.088.754.1 1.376.035 1.869-.055.492-.106.992-.153 1.501l-.266 3.175-.048.346 36.194-19.27.296-.1c.493-.167.995-.143 1.507.068.521.212.875.592 1.061 1.144.153.455.14.904-.04 1.348-.179.448-.48.797-.9 1.045L131.53 35.08a42.16 42.16 0 00-.57 9.706c.184 3.324.333 6.467.441 9.431l.287 4.569a61.762 61.762 0 00.496 5.044c.235 1.775.608 3.332 1.112 4.67.066.196.156.414.269.652.109.248.193.389.259.424l.099.049c.164-.332.572-1.042 1.228-2.129.665-1.082 1.231-2.34 1.697-3.77a9.5 9.5 0 00.365-1.509 6.74 6.74 0 01.444-1.518l.989-4.505 1.18-7.653.53-4.596.137-1.547c.108-.367.31-.6.606-.7.551-.185.922-.004 1.104.536a.38.38 0 01.01.177.385.385 0 00.02.159l-.228 1.577-.675 4.646-1.048 6.092-.538 3.1-1.447 6.077a77.321 77.321 0 01-1.164 3.59c-.41 1.17-1.075 2.219-1.99 3.145l-.47.322c-.047.016-.079.035-.094.065-.018.04-.077.075-.177.109-.196.066-.473.077-.83.033l-.37-.122c-.582-.258-.93-.557-1.047-.901a4.432 4.432 0 00-.542-1.07l-.28-.83-.264-.786a4.468 4.468 0 01-.19-.81l-.317-1.476a8.58 8.58 0 00-.146-.824c-.07-.286-.151-.55-.234-.795l-.747-4.662-.257-1.496-1.049-9.572c-.569-.027-.922-.242-1.06-.65a.33.33 0 010-.247l.054-1.6.063-1.523.309-4.52-.012-.573-.085-1.719-2.25 1.005-.149.05a1.02 1.02 0 01-.711-.007c-.23-.096-.397-.296-.497-.592-.165-.492-.015-.876.452-1.157zm0 0"
  />
  <path
    fill="currentColor"
    d="M143.682 42.411l-.161.55a4.323 4.323 0 01-.047.988 6.518 6.518 0 00-.09.805l-.121 2.383a101.68 101.68 0 00-.002 2.342 62.2 62.2 0 00.067 2.302l.267 3.487.423 2.282.33.978c.033.1.093.228.178.384.082.17.154.27.22.306l.088-.03.049-.099.32-.273.566-.767.427-.985a18.44 18.44 0 00.883-3.299l.399-2.294a111.439 111.439 0 00.416-4.098c.11-1.398.086-2.74-.073-4.032l-.052-.642-.05-.394c.046-.016.057-.073.023-.174-.04-.435.06-.848.292-1.236a1.75 1.75 0 01.956-.783c.54-.182 1.046-.155 1.513.083.473.228.815.583 1.036 1.07l.224.665-.043.361.05.148.001.247.184 1.768c-.04.74.105 1.72.43 2.94a52.916 52.916 0 00.828 2.803l.33.73c.033.1.074.197.129.286.063.09.112.185.144.282l.074-.025.41-.55.67-1.48c.097-.362.196-.643.294-.84l.24-.758c.14-.43.251-.843.341-1.236.087-.391.188-.826.302-1.305l.301-1.602.582-3.461.153-1.8.145-.79-.08-.485.121-.37c-.101-.46.102-.776.605-.946.244-.082.508-.071.786.032a.871.871 0 01.576.582.917.917 0 01.055.41l-.61 3.618-.662 3.47-.19.906-.16.796c-.115.315-.2.607-.248.875-.042.27-.095.551-.16.845l-.5 1.751a6.242 6.242 0 01-.243.89c-.105.279-.215.575-.329.886l-.647 1.306c-.067.135-.181.284-.345.447l-.413.485c-.1.034-.158.07-.178.11-.022.031-.086.061-.182.094l-.519.174a.668.668 0 00-.29.016c-.07.024-.174 0-.308-.078l-.484-.165a19.782 19.782 0 01-.516-.403 1.227 1.227 0 01-.381-.547l-.298-.396a12.569 12.569 0 01-.671-1.257c-.204-.434-.397-.848-.583-1.239l-1.183 4.9a38.41 38.41 0 01-.498 1.801 14.032 14.032 0 01-.795 2.098 9.51 9.51 0 01-1.086 1.817c-.402.53-.85.879-1.346 1.046l-.385.13c-.688.232-1.224.133-1.602-.301l-.37-.37a.511.511 0 01-.265-.29.817.817 0 00-.188-.316l-.728-1.914-.818-3.65-.922-7.191-.483-4.173-.125-.617c-.088-1.08.39-1.798 1.435-2.15.503-.17.982-.12 1.433.144.454.268.763.647.928 1.138l.125.37zm0 0"
  />
  <path
    fill="currentColor"
    d="M161.052 34.134c.058-.184.18-.498.358-.945.177-.455.354-.82.535-1.104l.451-.91.272-.174c.063-.128.198-.269.404-.417a1.92 1.92 0 01.522-.308l.953-.156c.426-.032.767.05 1.024.248.262.189.43.297.505.325l.372.37c.102.143.201.278.303.408.097.132.174.272.224.42l.15.444c.506 1.503.678 3.015.523 4.539a31.263 31.263 0 00-.094 4.665l-.117 3.123.686-2.903a15.14 15.14 0 01.59-2.705l.16-.55.265-.682c.03-.23.11-.457.23-.688l.324-.653.412-.733.222-.321.68-.724c.031-.064.18-.197.442-.396l1.027-.43c.047-.016.255-.027.613-.04.359-.01.611.04.76.155l.596.295c.276.137.479.324.613.551.132.232.282.428.447.591l.18.533c.133.396.199.675.2.84l.106.805c.034.43.043.884.03 1.359-.005.475-.04.948-.1 1.418l-.088 1.695.96-2.83a39.945 39.945 0 00.737-2.458c.226-.823.425-1.652.596-2.492l.643-2.543c.012-.123.015-.223.014-.3a.857.857 0 01.103-.332l.3-1.849c.08-.41.318-.684.714-.817.651-.22 1.085-.007 1.3.632.088.26.005.72-.241 1.385-.25.67-.431 1.242-.544 1.716l-2.12 7.557-.742 2.493-.72 1.825-.55 1.109-.246.249c-.034.068-.123.123-.27.173l-.312.105c-.083.085-.175.105-.276.06l-.243-.133-.198-.098c-.33-.16-.509-.31-.53-.448a1.44 1.44 0 00-.045-.28l-.325-.964c-.004-.172-.056-.41-.156-.705l-.404-1.94-.387-1.882-.25-.74a4.903 4.903 0 00-.492.742l-.673.987a41.707 41.707 0 00-2.352 4.42 29.894 29.894 0 00-1.743 4.956.529.529 0 01-.37.372c-.355.12-.582.03-.682-.266.031-.063.042-.12.024-.171l-.02-1.33a32.11 32.11 0 01-.225-1.887 51.607 51.607 0 01-.149-2.158l-.375-2.628c-.19-.88-.372-1.79-.557-2.73a20.007 20.007 0 00-.69-2.686l-1.534 4.111a330.832 330.832 0 01-1.731 5.086 37.839 37.839 0 00-1.428 5.065l-.544 2.59c-.107.49-.213 1.13-.305 1.933-.09.81-.334 1.283-.742 1.42-.196.067-.4.036-.607-.091a.864.864 0 01-.408-.474c-.033-.1-.031-.182 0-.247l-.24-19.012c-.038-.931.414-1.557 1.361-1.877.553-.186 1.048-.171 1.483.044.436.216.751.538.952.966zm11.133 3.091l-.074.025c.017.051.047.067.099.05zm0 0"
  />
</svg>
